# xmcd
#
# Track frame offsets:
#	150
#	17177
#	36757
#	57212
#	72695
#	94150
#	116945
#	131532
#	148940
#	173480
#	189135
#	204167
#	223395
#	242290
#	261585
#	277897
#
# Disc length: 3965 seconds
#
# Revision: 1
# Processed by: cddbd v1.5.1PL0 Copyright (c) Steve Scherf et al.
# Submitted via: CDex 1.50Beta5
#
DISCID=f20f7b10
DTITLE=Various Artist - Female Vocal Special
DYEAR=1900
DGENRE=
TTITLE0=竹内まりや/ドリーム・オブ・ユー〜レモンライムの青い風〜
TTITLE1=竹内まりや/不思議なピーチパイ
TTITLE2=竹内まりや/SEPTEMBER
TTITLE3=竹内まりや/MORNING GLORY
TTITLE4=大貫妙子/夏に恋する女たち
TTITLE5=大貫妙子/突然の贈りもの
TTITLE6=大貫妙子/ピーターラビットとわたし
TTITLE7=吉田美奈子/夢で逢えたら
TTITLE8=吉田美奈子/ろかばいまいべいびい
TTITLE9=越美晴/気まぐれハイウェイ
TTITLE10=越美晴/ラヴ・ステップ
TTITLE11=epo/DOWN TOWN
TTITLE12=epo/土曜の夜はパラダイス
TTITLE13=epo/う・ふ・ふ・ふ
TTITLE14=矢野顕子/春咲小紅
TTITLE15=矢野顕子/David
EXTD=
EXTT0=
EXTT1=
EXTT2=
EXTT3=
EXTT4=
EXTT5=
EXTT6=
EXTT7=
EXTT8=
EXTT9=
EXTT10=
EXTT11=
EXTT12=
EXTT13=
EXTT14=
EXTT15=
PLAYORDER=
